# AST/ASF file generated using VICON BodyLanguage
# -----------------------------------------------
:version 1.10
:name VICON
:units
  mass 1.0
  length 0.45
  angle deg
:documentation
   .ast/.asf automatically generated from VICON data using
   VICON BodyBuilder and BodyLanguage model FoxedUp or BRILLIANT.MOD
:root
   order TX TY TZ RX RY RZ
   axis XYZ
   position 0 0 0  
   orientation 0 0 0 
:bonedata
  begin
     id 1 
     name lhipjoint
     direction 0.623529 -0.717805 0.309788 
     length 2.23224 
     axis 0 0 0  XYZ
  end
  begin
     id 2 
     name lfemur
     direction 0.34202 -0.939693 0  
     length 7.11402  
     axis 0 0 20  XYZ
    dof rx ry rz
    limits (-160.0 20.0)
           (-70.0 70.0)
           (-60.0 70.0)
  end
  begin
     id 3 
     name ltibia
     direction 0.34202 -0.939693 0   
     length 6.78496   
     axis 0 0 20   XYZ
    dof rx
    limits (-10.0 170.0)
  end
  begin
     id 4 
     name lfoot
     direction 0.125078 -0.343648 0.930732   
     length 1.84054   
     axis -90 7.62852e-016 20   XYZ
    dof rx rz
    limits (-45.0 90.0)
           (-70.0 20.0)
  end
  begin
     id 5 
     name ltoes
     direction 1.53565e-011 -4.21893e-011 1   
     length 0.916474   
     axis -90 7.62852e-016 20   XYZ
    dof rx
    limits (-90.0 20.0)
  end
  begin
     id 6 
     name rhipjoint
     direction -0.564688 -0.757748 0.327026   
     length 2.11457  
     axis 0 0 0  XYZ 
  end
  begin
     id 7 
     name rfemur
     direction -0.34202 -0.939693 0   
     length 7.14609   
     axis 0 0 -20   XYZ
    dof rx ry rz
    limits (-160.0 20.0)
           (-70.0 70.0)
           (-70.0 60.0)
  end
  begin
     id 8 
     name rtibia
     direction -0.34202 -0.939693 0   
     length 6.78101   
     axis 0 0 -20   XYZ
    dof rx
    limits (-10.0 170.0)
 end
 begin
     id 9 
     name rfoot
     direction -0.0992671 -0.272734 0.956955   
     length 1.96168  
     axis -90 -7.62852e-016 -20   XYZ
    dof rx rz
    limits (-45.0 90.0)
           (-20.0 70.0)
  end
  begin
     id 10 
     name rtoes
     direction -1.5356e-011 -4.21891e-011 1   
     length 0.982933   
     axis -90 -7.62852e-016 -20   XYZ
    dof rx
    limits (-90.0 20.0)
  end
  begin
     id 11 
     name lowerback
     direction -0.00596953 0.998668 0.0512524   
     length 1.87557   
     axis 0 0 0   XYZ
    dof rx ry rz
    limits (-20.0 45.0)
           (-30.0 30.0)
           (-30.0 30.0)
  end
  begin
     id 12 
     name upperback
     direction 0.00584879 0.999652 0.0257308   
     length 1.87883   
     axis 0 0 0   XYZ
    dof rx ry rz
    limits (-20.0 45.0)
           (-30.0 30.0)
           (-30.0 30.0)
  end
  begin
     id 13 
     name thorax
     direction 0.010104 0.999947 0.00178881   
     length 1.87779   
     axis 0 0 0   XYZ
    dof rx ry rz
    limits (-20.0 45.0)
           (-30.0 30.0)
           (-30.0 30.0)
  end
  begin
     id 14 
     name lowerneck
     direction 0.0120771 0.995934 -0.0892773   
     length 1.40897   
     axis 0 0 0   XYZ
    dof rx ry rz
    limits (-20.0 45.0)
           (-30.0 30.0)
           (-30.0 30.0)
  end
  begin
     id 15 
     name upperneck
     direction -0.030568 0.999465 -0.0116366   
     length 1.38661   
     axis 0 0 0   XYZ
    dof rx ry rz
    limits (-20.0 45.0)
           (-30.0 30.0)
           (-30.0 30.0)
  end
  begin
     id 16
     name head
     direction -0.0170715 0.999854 -0.00104426  
     length 1.47052  
     axis 0 0 0   XYZ
    dof rx ry rz
    limits (-20.0 45.0)
           (-30.0 30.0)
           (-30.0 30.0)
  end
  begin
     id 17 
     name lclavicle
     direction 0.977763 0.206143 0.038532  
     length 3.02424  
     axis 0 0 0   XYZ
    dof ry rz
    limits (-20.0 10.0)
           (0.0 20.0)
  end
  begin
     id 18 
     name lhumerus
     direction 1 -4.48965e-011 -2.62654e-027   
     length 4.68382   
     axis 180 -30 -90   XYZ
    dof rx ry rz
    limits (-60.0 90.0)
           (-90.0 90.0)
           (-90.0 90.0)
  end
  begin
     id 19
     name lradius
     direction 1 -4.48973e-011 -1.54954e-027   
     length 2.98124   
     axis 180 -30 -90   XYZ
    dof rx
    limits (-10.0 170.0)
  end
  begin
     id 20
     name lwrist
     direction 1 -4.48959e-011 7.20928e-028   
     length 1.49062   
     axis -5.52449e-016 90 90   XYZ
    dof ry
    limits (-180.0 0.0)
 end
  begin
     id 21 
     name lhand
     direction 1 -4.48971e-011 1.44186e-027   
     length 0.707595   
     axis -9.20027e-016 90 90   XYZ
    dof rx rz
    limits (-90.0 90.0)
           (-45.0 45.0)
  end
  begin
     id 22 
     name lfingers
     direction 1 -4.48985e-011 2.88371e-027   
     length 0.570481   
     axis -1.84005e-015 90 90   XYZ
    dof rx
    limits (0.0 90.0)
  end
  begin
     id 23
     name lthumb
     direction 0.707107 -6.34929e-011 0.707107   
     length 0.819101   
     axis -90 45 2.85299e-015   XYZ
    dof rx rz
    limits (-45.0 45.0)
           (-45.0 45.0)
  end
  begin
     id 24 
     name rclavicle
     direction -0.958661 0.284411 -0.00895327   
     length 3.11921  
     axis 0 0 0   XYZ 
    dof ry rz
    limits (-10.0 20.0)
           (-20.0 0.0)
  end
  begin
     id 25 
     name rhumerus
     direction -1 -4.48963e-011 -4.22193e-027  
     length 4.75876   
     axis 180 30 90   XYZ
    dof rx ry rz
    limits (-90.0 60.0)
           (-90.0 90.0)
           (-90.0 90.0)
  end
  begin
     id 26 
     name rradius
     direction -1 -4.48968e-011 -1.07616e-027   
     length 2.93293   
     axis 180 30 90   XYZ
    dof rx
    limits (-10.0 170.0)
  end
  begin
     id 27 
     name rwrist
     direction -1 -4.48965e-011 7.20928e-028   
     length 1.46647   
     axis -5.52449e-016 -90 -90   XYZ
    dof ry
    limits (-180.0 0.0)
  end
  begin
     id 28
     name rhand
     direction -1 -4.48971e-011 1.44186e-027   
     length 0.831748   
     axis -9.20027e-016 -90 -90   XYZ
    dof rx rz
    limits (-90.0 90.0)
           (-45.0 45.0)
  end
  begin
     id 29
     name rfingers
     direction -1 -4.48961e-011 2.88371e-027   
     length 0.670577   
     axis -1.84005e-015 -90 -90   XYZ
    dof rx
    limits (0.0 90.0)
  end
  begin
     id 30
     name rthumb
     direction -0.707107 -6.34929e-011 0.707107   
     length 0.962818   
     axis -90 -45 -2.85299e-015   XYZ
    dof rx rz
    limits (-45.0 45.0)
           (-45.0 45.0)
  end
:hierarchy
  begin
    root lhipjoint rhipjoint lowerback
    lhipjoint lfemur
    lfemur ltibia
    ltibia lfoot
    lfoot ltoes
    rhipjoint rfemur
    rfemur rtibia
    rtibia rfoot
    rfoot rtoes
    lowerback upperback
    upperback thorax
    thorax lowerneck lclavicle rclavicle
    lowerneck upperneck
    upperneck head
    lclavicle lhumerus
    lhumerus lradius
    lradius lwrist
    lwrist lhand lthumb
    lhand lfingers
    rclavicle rhumerus
    rhumerus rradius
    rradius rwrist
    rwrist rhand rthumb
    rhand rfingers
  end

#!OML:ASF E:\id_vita\Project 1\Capture day 1\Session 1\Female.ASF
:FULLY-SPECIFIED
:DEGREES
202
root 20.9121 13.1186 -0.103524 38.8235 -83.1299 8.86847
lowerback 11.1566 0.669581 -1.04905
upperback -5.40815 0.897158 1.76426
thorax -12.2413 0.585918 2.33206
lowerneck 0.397701 1.40002 -3.06407
upperneck -43.8696 -1.27603 -0.128809
head -15.6641 -1.24808 0.998061
rclavicle 5.96354e-015 3.02153e-014
rhumerus -5.92299 16.8847 -25.4624
rradius 134.793
rwrist 14.588
rhand -52.6368 42.1201
rfingers 7.12502
rthumb -25.1178 13.7523
lclavicle 5.96354e-015 3.02153e-014
lhumerus -4.11969 -6.81804 29.5596
lradius 130.239
lwrist 1.13096
lhand -30.0119 40.0448
lfingers 7.12502
lthumb -3.32892 69.9986
rfemur -97.7356 -0.201069 22.1735
rtibia 85.9965
rfoot -23.5205 -21.1442
rtoes -22.4048
lfemur -98.3762 -10.4668 -13.8256
ltibia 86.3067
lfoot -26.4374 25.195
ltoes 0.0946776
203
root 20.9816 13.2085 -0.0996756 38.6772 -83.4069 8.84308
lowerback 11.5194 0.732199 -1.08353
upperback -5.61985 0.967854 1.69285
thorax -12.7092 0.623878 2.25946
lowerneck 0.883706 1.5258 -3.53044
upperneck -43.993 -1.05778 0.105106
head -15.8483 -1.0882 1.16227
rclavicle -3.18055e-014 -3.97569e-014
rhumerus -6.00477 16.6016 -25.8996
rradius 134.62
rwrist 14.0397
rhand -52.6544 42.9893
rfingers 7.12502
rthumb -25.1347 14.6239
lclavicle -3.18055e-014 -3.97569e-014
lhumerus -4.48122 -6.28005 30.4148
lradius 130.182
lwrist 1.37756
lhand -30.2214 40.5769
lfingers 7.12502
lthumb -3.5313 70.5274
rfemur -97.2015 -0.153716 22.0686
rtibia 84.8296
rfoot -23.3509 -21.1251
rtoes -23.0495
lfemur -97.9608 -10.3807 -13.8676
ltibia 85.4096
lfoot -26.51 24.2734
ltoes 2.38769
204
root 21.0578 13.2712 -0.0952893 38.5987 -83.6186 9.08013
lowerback 11.4499 0.779464 -1.12002
upperback -5.95944 1.01571 1.62759
thorax -13.0614 0.649496 2.20094
lowerneck 1.17461 1.5745 -3.59524
upperneck -43.794 -0.943089 0.125671
head -15.8073 -1.00907 1.16129
rclavicle -3.97569e-016 -1.23246e-014
rhumerus -6.1149 16.3111 -26.2939
rradius 134.46
rwrist 13.2766
rhand -52.5694 43.4056
rfingers 7.12502
rthumb -25.0532 15.0287
lclavicle -3.97569e-016 -1.23246e-014
lhumerus -4.86248 -5.8597 31.1536
lradius 130.095
lwrist 1.17889
lhand -30.2497 40.703
lfingers 7.12502
lthumb -3.55863 70.6531
rfemur -97.2359 -0.113025 21.8509
rtibia 83.72
rfoot -23.025 -22.2681
rtoes -26.9052
lfemur -98.0362 -10.3859 -13.6568
ltibia 84.4422
lfoot -25.911 22.7021
ltoes 5.38599
205
root 21.1201 13.3509 -0.0980442 38.0143 -83.8539 9.30846
lowerback 11.4465 0.792399 -1.23557
upperback -5.89753 1.00369 1.53214
thorax -12.987 0.648218 2.16291
lowerneck 1.49977 1.58448 -3.34367
upperneck -43.8526 -0.925471 0.0399262
head -15.9146 -1.024 1.07845
rclavicle 1.47101e-014 4.8901e-014
rhumerus -5.87494 15.4483 -26.7266
rradius 134.119
rwrist 12.1955
rhand -52.1529 43.6256
rfingers 7.12502
rthumb -24.6541 15.1936
lclavicle 1.47101e-014 4.8901e-014
lhumerus -4.88123 -5.06398 31.616
lradius 129.802
lwrist 0.762604
lhand -30.2742 40.5379
lfingers 7.12502
lthumb -3.58225 70.4876
rfemur -96.5716 0.00823146 21.5946
rtibia 82.5854
rfoot -22.4154 -19.9543
rtoes -23.1833
lfemur -97.3213 -10.3865 -13.6118
ltibia 83.255
lfoot -25.1432 23.4864
ltoes 3.1266
206
root 21.1834 13.4433 -0.104346 37.3636 -84.0651 9.65275
lowerback 10.9211 0.73293 -1.27193
upperback -5.59032 0.907087 1.39955
thorax -12.303 0.59167 2.05772
lowerneck 1.84528 1.55539 -3.16726
upperneck -44.0755 -0.966817 0.061445
head -16.1182 -1.07425 1.07049
rclavicle 1.07344e-014 -2.50469e-014
rhumerus -5.29188 14.5553 -27.2418
rradius 133.831
rwrist 11.6717
rhand -52.1759 41.0656
rfingers 7.12502
rthumb -24.6761 12.6367
lclavicle 1.07344e-014 -2.50469e-014
lhumerus -4.53129 -3.84659 31.8927
lradius 129.3
lwrist 0.499793
lhand -30.5067 40.2406
lfingers 7.12502
lthumb -3.8068 70.1863
rfemur -95.8671 0.13564 21.3308
rtibia 81.362
rfoot -21.7658 -19.0186
rtoes -22.5827
lfemur -96.6271 -10.333 -13.691
ltibia 81.9869
lfoot -23.8808 23.1432
ltoes 2.48347
207
root 21.2507 13.5317 -0.108897 36.4052 -84.2273 10.3822
lowerback 10.7351 0.680444 -1.38441
upperback -5.67477 0.813077 1.3598
thorax -12.283 0.553849 2.09892
lowerneck 1.68309 1.59764 -3.36403
upperneck -43.5899 -0.808691 0.204547
head -15.8109 -0.975509 1.13119
rclavicle -3.1408e-014 -5.04913e-014
rhumerus -4.89497 14.2432 -27.5428
rradius 133.512
rwrist 11.3858
rhand -52.4165 39.5565
rfingers 7.12502
rthumb -24.9067 11.1593
lclavicle -3.1408e-014 -5.04913e-014
lhumerus -4.64133 -3.11588 32.2881
lradius 128.854
lwrist 0.477757
lhand -30.9264 39.769
lfingers 7.12502
lthumb -4.21203 69.7071
rfemur -95.2496 0.200389 21.0337
rtibia 80.1017
rfoot -21.0479 -19.1287
rtoes -23.2006
lfemur -96.055 -10.3819 -13.6681
ltibia 80.7587
lfoot -23.146 23.3175
ltoes 0.873359
208
root 21.3088 13.6205 -0.112651 33.9823 -84.4562 12.5094
lowerback 10.5657 0.655851 -1.67053
upperback -5.67881 0.727424 1.28614
thorax -12.1838 0.531795 2.19825
lowerneck 1.56325 1.68017 -3.54289
upperneck -43.2994 -0.624382 0.314164
head -15.6277 -0.870442 1.17731
rclavicle 1.59028e-014 2.26615e-014
rhumerus -4.53877 13.6867 -27.8027
rradius 133.168
rwrist 10.7811
rhand -52.269 38.7274
rfingers 7.12502
rthumb -24.7653 10.3107
lclavicle 1.59028e-014 2.26615e-014
lhumerus -4.54857 -2.41848 32.7046
lradius 128.279
lwrist 0.423546
lhand -31.5586 39.237
lfingers 7.12502
lthumb -4.8225 69.1621
rfemur -94.5344 0.252533 20.5945
rtibia 78.8547
rfoot -20.5736 -19.8412
rtoes -25.2
lfemur -95.2772 -10.4472 -13.8409
ltibia 79.5618
lfoot -22.8671 23.1764
ltoes 0.240056
209
root 21.359 13.7107 -0.115455 32.2892 -84.6619 13.9173
lowerback 10.1132 0.660452 -1.93404
upperback -5.5528 0.697976 1.27174
thorax -11.7677 0.532554 2.33687
lowerneck 1.37681 1.68569 -3.59668
upperneck -43.0979 -0.597893 0.330059
head -15.4762 -0.850682 1.18373
rclavicle 2.34566e-014 9.14409e-015
rhumerus -4.23294 12.7829 -27.9567
rradius 132.878
rwrist 9.7084
rhand -52.4693 41.3408
rfingers 7.12502
rthumb -24.9573 12.9507
lclavicle 2.34566e-014 9.14409e-015
lhumerus -4.09208 -1.64849 33.2319
lradius 127.692
lwrist 0.480838
lhand -31.8374 39.0388
lfingers 7.12502
lthumb -5.09177 68.9576
rfemur -93.7727 0.373619 20.2532
rtibia 77.5823
rfoot -20.2756 -17.5595
rtoes -21.4193
lfemur -94.4541 -10.4353 -13.956
ltibia 78.4049
lfoot -22.5501 23.2571
ltoes 1.01282
210
root 21.4094 13.7998 -0.114894 32.2005 -84.7639 13.7144
lowerback 9.61477 0.640398 -1.96945
upperback -5.51695 0.674315 1.29748
thorax -11.4244 0.519885 2.38967
lowerneck 1.29098 1.63848 -3.49045
upperneck -42.7544 -0.651113 0.239594
head -15.2706 -0.86997 1.12088
rclavicle -5.96354e-015 -3.65764e-014
rhumerus -3.78888 12.1596 -27.9425
rradius 132.573
rwrist 8.54091
rhand -53.9869 48.2948
rfingers 7.12502
rthumb -26.4108 20.1145
lclavicle -5.96354e-015 -3.65764e-014
lhumerus -3.72714 -1.02608 33.7041
lradius 127.274
lwrist 0.776751
lhand -31.6387 39.173
lfingers 7.12502
lthumb -4.89985 69.0964
rfemur -92.9801 0.514936 20.1059
rtibia 76.2833
rfoot -19.4969 -19.2346
rtoes -23.9288
lfemur -93.6693 -10.4602 -13.7823
ltibia 77.2525
lfoot -22.4434 21.9166
ltoes 5.1148
211
root 21.4583 13.8935 -0.112527 31.2401 -84.9125 14.1768
lowerback 9.62499 0.655715 -2.0625
upperback -5.65338 0.677501 1.28797
thorax -11.5871 0.530613 2.43237
lowerneck 1.46735 1.56852 -3.35483
upperneck -42.3331 -0.733354 0.108023
head -15.0854 -0.888305 1.03681
rclavicle -5.96354e-015 -1.47101e-014
rhumerus -3.38595 11.9848 -27.8067
rradius 132.406
rwrist 7.54489
rhand -53.1476 41.5074
rfingers 7.12502
rthumb -25.6071 13.2091
lclavicle -5.96354e-015 -1.47101e-014
lhumerus -3.59447 -0.788178 34.1349
lradius 127.005
lwrist 1.19213
lhand -31.5737 39.4874
lfingers 7.12502
lthumb -4.83714 69.4122
rfemur -91.9448 0.643119 19.897
rtibia 74.9654
rfoot -19.0425 -16.4096
rtoes -17.8188
lfemur -92.6231 -10.5096 -13.8123
ltibia 76.0152
lfoot -22.0182 23.2959
ltoes 2.39802
212
root 21.5043 13.9911 -0.108649 30.3155 -85.034 14.5628
lowerback 9.64703 0.687352 -2.11283
upperback -5.79179 0.708829 1.28069
thorax -11.7608 0.551823 2.44781
lowerneck 1.74988 1.57079 -3.55393
upperneck -42.0062 -0.652797 0.253042
head -14.9794 -0.814953 1.11403
rclavicle 2.06736e-014 9.14409e-015
rhumerus -3.20122 11.8093 -27.704
rradius 132.313
rwrist 6.83566
rhand -52.6605 38.2745
rfingers 7.12502
rthumb -25.1405 9.90993
lclavicle 2.06736e-014 9.14409e-015
lhumerus -3.36219 -0.683323 34.541
lradius 126.831
lwrist 1.80415
lhand -31.6109 39.9814
lfingers 7.12502
lthumb -4.87304 69.9053
rfemur -90.8259 0.748804 19.6933
rtibia 73.613
rfoot -18.5691 -18.5513
rtoes -21.7956
lfemur -91.5042 -10.5138 -14.0039
ltibia 74.6837
lfoot -21.1797 22.9986
ltoes 1.80578
